<?xml version="1.0" standalone="no"?><!DOCTYPE svg PUBLIC "-//W3C//DTD SVG 1.1//EN" "http://www.w3.org/Graphics/SVG/1.1/DTD/svg11.dtd"><svg t="1542259271702" class="icon" style="" viewBox="0 0 1024 1024" version="1.1" xmlns="http://www.w3.org/2000/svg" p-id="2699" xmlns:xlink="http://www.w3.org/1999/xlink" width="200" height="200"><defs><style type="text/css"></style></defs><path d="M364.930867 511.738317C364.930867 470.028954 379.015526 435.363072 407.723571 406.65385 436.432845 377.944576 471.099904 363.859917 512.809267 363.859917 554.517504 363.859917 589.18569 377.944576 617.894963 406.65385 646.605363 435.363072 660.687667 470.028954 660.687667 511.738317 660.687667 553.448909 646.604186 588.658176 617.894963 617.366272 589.18569 646.074317 554.517504 660.15785 512.809267 660.15785 471.099904 660.15785 436.296704 646.209331 407.723571 617.366272 378.879386 588.250931 364.930867 552.90665 364.930867 511.738317L364.930867 511.738317ZM155.85449 608.157235C164.521267 639.032013 177.522586 669.368013 193.23049 697.53385L95.72823 817.246413 206.229504 927.747635 325.929267 830.245376C354.097408 845.954509 384.973363 858.95465 415.84809 868.163635L432.098304 1020.915354 591.351245 1020.915354 607.601408 868.163635C638.477363 858.95465 667.728845 845.954509 697.519104 830.245376L816.689408 927.747635 928.275149 817.246413 830.231808 697.53385C845.39863 669.368013 858.939904 639.03319 868.146586 608.157235L1020.901786 591.364813 1020.901786 432.111872 868.146586 415.861709C858.939904 384.985754 845.39863 356.276531 830.231808 326.485094L928.275149 206.773709 816.689408 95.187917 697.519104 193.231309C667.186586 178.063309 638.477363 164.522035 607.601408 155.314176L591.352371 2.560154 432.09943 2.560154 415.849267 155.314176C383.889971 164.522035 354.098586 178.064435 325.930445 193.231309L206.23063 95.187917 95.729408 206.773709 193.231667 326.485094C178.063667 356.277709 165.063526 384.985754 155.855667 415.861709L2.559386 432.111872 2.559386 591.364813 155.85449 608.157235 155.85449 608.157235Z" p-id="2700" fill="#2c2c2c"></path></svg>